# Blender 4.2.1 LTS
# www.blender.org
mtllib seesaw.mtl
o block-moving
v -1.194533 0.300000 -0.400000
v -1.116607 0.300000 -0.300000
v -1.194533 0.300000 0.400000
v -1.116607 0.300000 0.300000
v -1.216607 0.300000 0.377926
v -1.216607 0.300000 -0.377926
v -1.216607 0.000000 0.500000
v -1.216607 -0.000000 -0.500000
v -1.284908 0.000000 0.468301
v -1.284908 -0.000000 -0.468301
v -1.316607 0.000000 0.400000
v -1.316607 -0.000000 -0.400000
v -1.216607 0.100000 -0.500000
v -1.216607 0.100000 0.500000
v -1.284908 0.100000 -0.468301
v -1.284908 0.100000 0.468301
v -1.316607 0.100000 -0.400000
v -1.316607 0.100000 0.400000
v -1.216607 0.200000 0.500000
v -1.216607 0.200000 -0.500000
v -1.284908 0.200000 0.468301
v -1.284908 0.200000 -0.468301
v -1.316607 0.200000 0.400000
v -1.316607 0.200000 -0.400000
v -1.216607 0.300000 -0.500000
v -1.216607 0.300000 0.500000
v -1.284908 0.300000 -0.468301
v -1.284908 0.300000 0.468301
v -1.316607 0.300000 -0.400000
v -1.316607 0.300000 0.400000
v 0.388963 0.100000 -0.450000
v 0.388963 0.200000 -0.450000
v -1.205570 0.100000 -0.450000
v -1.205570 0.200000 -0.450000
v -1.247259 0.100000 -0.430652
v -1.247259 0.200000 -0.430652
v -1.266607 0.100000 -0.388963
v -1.266607 0.200000 -0.388963
v -1.266607 0.100000 0.388963
v -1.266607 0.200000 0.388963
v -1.247259 0.100000 0.430652
v -1.247259 0.200000 0.430652
v -1.205570 0.100000 0.450000
v -1.205570 0.200000 0.450000
v 0.388963 0.200000 0.450000
v 0.430652 0.200000 0.430652
v 0.450000 0.200000 0.388963
v -1.316607 0.250000 -0.000000
v -0.819335 0.300000 -0.344655
v -0.819335 0.300000 -0.400000
v -0.819335 0.300000 -0.300000
v -0.819335 0.300000 0.400000
v -0.819335 0.300000 0.344655
v -0.819335 0.300000 0.300000
v -0.819335 0.000000 0.003410
v -0.819335 0.000000 0.500000
v -0.819335 -0.000000 -0.500000
v -0.819335 0.100000 -0.003410
v -0.819335 0.100000 -0.500000
v -0.819335 0.100000 0.500000
v -0.819335 0.049659 0.500000
v -0.819335 0.050341 -0.500000
v -0.819335 0.200000 0.003409
v -0.819335 0.200000 0.500000
v -0.819335 0.200000 -0.500000
v -0.819335 0.300000 -0.448932
v -0.819335 0.300000 -0.500000
v -0.819335 0.300000 0.500000
v -0.819335 0.300000 0.448932
v -0.819335 0.300000 -0.002728
v -0.819335 0.249659 0.500000
v -0.819335 0.250341 -0.500000
v -0.819335 0.150351 -0.450000
v -0.819335 0.100000 -0.450000
v -0.819335 0.200000 -0.450000
v -0.819335 0.149649 0.450000
v -0.819335 0.100000 0.450000
v -0.819335 0.200000 0.450000
v 1.601577 0.300000 -0.377926
v 1.579503 0.300000 -0.400000
v 1.601577 0.300000 0.377926
v 1.579503 0.300000 0.400000
v 1.501577 0.300000 -0.300000
v 1.501577 0.300000 0.300000
v 1.701577 0.000000 0.400000
v 1.669879 0.000000 0.468301
v 1.701577 -0.000000 -0.400000
v 1.669879 -0.000000 -0.468301
v 1.601577 0.000000 0.500000
v 1.601577 -0.000000 -0.500000
v 1.701577 0.100000 -0.400000
v 1.669879 0.100000 -0.468301
v 1.701577 0.100000 0.400000
v 1.669879 0.100000 0.468301
v 1.601577 0.100000 -0.500000
v 1.601577 0.100000 0.500000
v 1.198850 0.049659 0.500000
v 1.701577 0.200000 0.400000
v 1.669879 0.200000 0.468301
v 1.701577 0.200000 -0.400000
v 1.669879 0.200000 -0.468301
v 1.601577 0.200000 0.500000
v 1.601577 0.200000 -0.500000
v 1.601577 0.300000 -0.500000
v 1.669879 0.300000 -0.468301
v 1.701577 0.300000 -0.400000
v 1.701577 0.300000 0.400000
v 1.669879 0.300000 0.468301
v 1.601577 0.300000 0.500000
v 1.198850 0.249659 0.500000
v 1.590540 0.100000 -0.450000
v 1.590540 0.200000 -0.450000
v 1.632229 0.100000 -0.430652
v 1.632229 0.200000 -0.430652
v 1.590540 0.100000 0.450000
v 1.590540 0.200000 0.450000
v 1.198850 0.149649 0.450000
v 1.198850 0.100000 0.450000
v 1.198850 0.200000 0.450000
v 1.632229 0.100000 0.430652
v 1.632229 0.200000 0.430652
v 1.651577 0.200000 0.388963
v 1.651577 0.100000 0.388963
v 1.651577 0.200000 -0.388963
v 1.651577 0.100000 -0.388963
v 1.198850 0.300000 -0.344655
v 1.198850 0.300000 -0.400000
v 1.198850 0.300000 -0.300000
v 1.198850 0.300000 0.400000
v 1.198850 0.300000 0.344655
v 1.198850 0.300000 0.300000
v 1.198850 0.000000 0.003410
v 1.198850 0.000000 0.500000
v 1.198850 -0.000000 -0.500000
v 1.198850 0.100000 -0.003410
v 1.198850 0.100000 -0.500000
v 1.198850 0.100000 0.500000
v 1.198850 0.050341 -0.500000
v 1.198850 0.200000 0.003409
v 1.198850 0.200000 0.500000
v 1.198850 0.200000 -0.500000
v 1.198850 0.300000 -0.448932
v 1.198850 0.300000 -0.500000
v 1.198850 0.300000 0.500000
v 1.198850 0.300000 0.448932
v 1.198850 0.300000 -0.002728
v 1.198850 0.250341 -0.500000
v 1.198850 0.150351 -0.450000
v 1.198850 0.100000 -0.450000
v 1.198850 0.200000 -0.450000
vn -0.0000 1.0000 -0.0000
vn -0.0000 -1.0000 -0.0000
vn -0.1081 -0.9941 -0.0000
vn -0.0981 -0.9941 -0.0455
vn 0.1081 -0.9941 -0.0000
vn -0.0837 -0.9800 -0.1804
vn 0.1266 -0.9902 -0.0588
vn -0.0000 -0.9916 -0.1296
vn 0.0681 -0.9868 -0.1468
vn -0.1081 0.9941 -0.0000
vn -0.0981 0.9941 0.0455
vn 0.1081 0.9941 -0.0000
vn -0.0837 0.9800 0.1804
vn 0.1266 0.9902 0.0588
vn -0.0000 0.9916 0.1296
vn 0.0681 0.9868 0.1468
vn -0.5166 -0.0000 0.8562
vn -0.2322 -0.0000 0.9727
vn -0.4185 0.1081 0.9018
vn -0.8890 0.1989 0.4126
vn -0.8951 -0.1618 0.4154
vn -0.8448 -0.0000 0.5350
vn -0.9570 -0.0000 0.2902
vn -0.8890 -0.1989 -0.4126
vn -0.8951 0.1618 -0.4154
vn -0.8448 -0.0000 -0.5350
vn -0.2135 0.0267 -0.9766
vn 0.1081 -0.0000 -0.9941
vn -0.0842 0.9957 0.0391
vn 0.0928 0.9957 -0.0000
vn -0.0734 0.9847 0.1581
vn 0.1056 0.9932 0.0490
vn -0.9916 0.1296 -0.0000
vn -0.9766 0.0267 -0.2135
vn -0.9916 -0.1296 -0.0000
vn -0.9868 -0.0000 0.1618
vn -0.9868 -0.0000 -0.1618
vn -0.2565 -0.0000 -0.9666
vn -0.5166 -0.0000 -0.8562
vn -0.4169 0.1396 -0.8982
vn -0.5033 -0.0000 0.8641
vn -0.8932 -0.1743 -0.4145
vn -0.2135 -0.0267 0.9766
vn 0.1081 -0.0000 0.9941
vn -0.2134 0.0274 -0.9766
vn -0.1566 0.1475 -0.9766
vn 0.4396 0.3798 -0.8139
vn -0.6156 0.2428 -0.7497
vn -0.2407 -0.1049 -0.9649
vn -0.6156 -0.2428 -0.7497
vn -0.2774 0.1566 -0.9479
vn -0.9649 -0.1049 -0.2407
vn -0.7497 0.2428 -0.6156
vn -0.7497 -0.2428 -0.6156
vn -0.9479 0.1566 -0.2774
vn -0.9766 -0.1475 0.1566
vn -0.9766 0.1475 -0.1566
vn -0.9766 -0.1878 -0.1049
vn -0.9766 0.1878 0.1049
vn -0.7497 -0.2428 0.6156
vn -0.9649 0.1049 0.2407
vn -0.9479 -0.1566 0.2774
vn -0.7497 0.2428 0.6156
vn -0.2407 0.1049 0.9649
vn -0.6156 -0.2428 0.7497
vn -0.2774 -0.1566 0.9479
vn -0.6156 0.2428 0.7497
vn -0.2134 -0.0274 0.9766
vn -0.1566 -0.1475 0.9766
vn 0.0693 -0.1262 0.9896
vn -0.0000 0.1440 0.9896
vn -0.2151 -0.0000 0.9766
vn -0.2151 -0.0000 -0.9766
vn -0.1081 -0.0000 0.9941
vn 0.2151 -0.0000 0.9766
vn -0.0000 0.2151 0.9766
vn -0.4169 -0.1396 0.8982
vn -0.9570 -0.0000 -0.2902
vn -0.2322 -0.0000 -0.9727
vn -0.4185 -0.1081 -0.9018
vn 0.5809 -0.0000 -0.8139
vn -0.0000 -0.0000 -1.0000
vn -0.4922 -0.0000 -0.8705
vn -0.5809 -0.0000 -0.8139
vn -0.0000 -0.0000 1.0000
vn 0.5809 -0.0000 0.8139
vn -0.4922 -0.0000 0.8705
vn -0.4192 -0.0928 -0.9032
vn -0.4181 -0.1165 0.9009
vn -0.9499 -0.0000 0.3125
vn -0.1081 -0.0000 -0.9941
vn 0.2151 -0.0000 -0.9766
vn -0.0000 -0.2151 -0.9766
vn -0.4396 0.3798 0.8139
vn -0.1115 0.4794 0.8705
vn 0.0928 -0.0000 -0.9957
vn -0.1049 0.1878 0.9766
vn -0.4396 -0.3798 -0.8139
vn -0.1049 -0.1878 -0.9766
vn -0.0000 -0.0928 0.9957
vn -0.0000 0.1081 -0.9941
vn -0.0000 -0.1081 0.9941
vn -0.0000 -0.9916 0.1296
vn -0.1266 -0.9902 0.0588
vn 0.0837 -0.9800 0.1804
vn -0.1266 0.9902 -0.0588
vn -0.0000 0.9916 -0.1296
vn -0.0681 0.9868 -0.1468
vn 0.0837 0.9800 -0.1804
vn 0.0981 0.9941 -0.0455
vn 0.5166 -0.0000 -0.8562
vn 0.2322 -0.0000 -0.9727
vn 0.4185 0.1081 -0.9018
vn 0.8890 0.1989 -0.4126
vn 0.8951 -0.1618 -0.4154
vn 0.8448 -0.0000 -0.5350
vn 0.9916 0.1296 -0.0000
vn 0.9916 -0.1296 -0.0000
vn 0.9868 -0.0000 -0.1618
vn 0.8890 -0.1989 0.4126
vn 0.8951 0.1618 0.4154
vn 0.8448 -0.0000 0.5350
vn 0.2322 -0.0000 0.9727
vn 0.5166 -0.0000 0.8562
vn 0.4169 0.1396 0.8982
vn 0.4185 -0.1081 0.9018
vn -0.0681 -0.9868 0.1468
vn 0.0981 -0.9941 0.0455
vn 0.5033 -0.0000 -0.8641
vn 0.4169 -0.1396 -0.8982
vn 0.0653 0.9879 -0.1406
vn -0.0928 0.9957 -0.0000
vn 0.9868 -0.0000 0.1618
vn 0.2753 -0.0000 0.9614
vn 0.4067 0.4902 -0.7709
vn 0.6156 -0.2428 -0.7497
vn -0.0684 0.1115 -0.9914
vn 0.6156 0.2428 -0.7497
vn -0.1115 -0.4794 -0.8705
vn 0.6156 0.2428 0.7497
vn 0.3571 -0.1504 0.9219
vn 0.6156 -0.2428 0.7497
vn -0.0684 -0.1115 0.9914
vn 0.7497 0.2428 0.6156
vn 0.9649 -0.1049 0.2407
vn 0.9479 0.1566 0.2774
vn 0.7497 -0.2428 0.6156
vn 0.9766 0.1475 0.1566
vn 0.9766 -0.1475 -0.1566
vn 0.9766 0.1878 -0.1049
vn 0.9766 -0.1878 0.1049
vn 0.9649 0.1049 -0.2407
vn 0.7497 -0.2428 -0.6156
vn 0.7497 0.2428 -0.6156
vn 0.9479 -0.1566 -0.2774
vn 0.9570 -0.0000 -0.2902
vn 0.9570 -0.0000 0.2902
vn 0.8961 -0.1550 0.4159
vn 0.1504 -0.0642 0.9865
vn 0.4902 -0.0443 -0.8705
vn -0.0000 -0.0928 -0.9957
vn -0.0000 0.1081 0.9941
vn -0.0000 -0.1081 -0.9941
vt 0.343750 0.275000
vt 0.343750 0.325000
vt 0.343750 0.425000
vt 0.343750 0.375341
vt 0.343750 0.375000
vt 0.343750 0.374659
vt 0.718750 0.124299
vt 0.718750 0.025000
vt 0.718750 0.225000
vt 0.718750 0.125701
vt 0.000000 0.000000
vt 0.718750 0.025000
s 1
usemtl colormap.002
f 49/1/1 50/1/1 1/1/1
f 2/1/1 1/1/1 4/1/1
f 3/1/1 1/1/1 5/1/1
f 5/1/1 1/1/1 6/1/1
f 55/2/2 56/2/3 7/2/4
f 55/2/2 7/2/4 8/2/5 57/2/5
f 8/2/5 7/2/4 9/2/6
f 8/2/5 9/2/6 10/2/7
f 10/2/7 9/2/6 11/2/8
f 10/2/7 11/2/8 12/2/9
f 58/3/1 59/3/10 13/3/11
f 58/3/1 13/3/11 14/3/12 60/3/12
f 14/3/12 13/3/11 15/3/13
f 14/3/12 15/3/13 16/3/14
f 16/3/14 15/3/13 17/3/15
f 16/3/14 17/3/15 18/3/16
f 14/3/17 9/2/18 7/2/19
f 9/2/20 18/3/21 11/2/22
f 18/3/21 9/2/20 16/3/23
f 15/3/24 12/2/25 17/3/26
f 62/4/27 13/3/28 59/3/28
f 63/2/2 19/2/4 20/2/5 65/2/5
f 20/2/5 19/2/4 21/2/6
f 20/2/5 21/2/6 22/2/7
f 22/2/7 21/2/6 23/2/8
f 22/2/7 23/2/8 24/2/9
f 66/3/1 67/3/10 25/3/29
f 1/3/1 25/3/29 6/3/1
f 68/3/12 69/3/1 26/3/30
f 6/3/1 25/3/29 27/3/31
f 26/3/30 5/3/1 28/3/32
f 28/3/32 29/3/15 30/3/16
f 23/2/33 48/5/34 29/3/35 24/2/36
f 29/3/35 48/5/34 23/2/33 30/3/37
f 27/3/38 20/2/39 22/2/40
f 26/3/41 21/2/18 19/2/19
f 27/3/42 24/2/25 29/3/26
f 70/3/1 2/3/1 4/3/1 54/3/1
f 71/6/43 19/2/44 64/2/44
f 73/7/45 34/8/46 75/8/47
f 36/8/48 33/9/49 35/9/50
f 33/9/49 36/8/48 34/8/51
f 37/9/52 36/8/53 35/9/54
f 36/8/53 37/9/52 38/8/55
f 39/9/56 38/8/57 37/9/58
f 38/8/57 39/9/56 40/8/59
f 41/9/60 40/8/61 39/9/62
f 40/8/61 41/9/60 42/8/63
f 44/8/64 41/9/65 43/9/66
f 41/9/65 44/8/64 42/8/67
f 76/10/68 43/9/69 77/9/70
f 49/1/1 51/1/1 128/1/1 126/1/1
f 76/10/68 77/9/70 118/9/71 117/10/72
f 62/4/27 59/3/28 136/3/28 138/4/73
f 49/1/1 1/1/1 2/1/1 51/1/1
f 52/1/1 53/1/1 3/1/1
f 4/1/1 1/1/1 3/1/1
f 50/1/1 49/1/1 126/1/1 127/1/1
f 60/3/74 61/6/75 97/6/76 137/3/74
f 61/6/75 7/2/44 56/2/44
f 66/3/1 50/3/1 127/3/1 142/3/1
f 9/2/18 14/3/17 16/3/77
f 11/2/33 17/3/35 12/2/36
f 17/3/35 11/2/33 18/3/37
f 12/2/25 15/3/24 10/2/78
f 15/3/79 8/2/39 10/2/40
f 8/2/39 15/3/79 13/3/80
f 64/2/3 63/2/2 139/2/2 140/2/3
f 51/3/1 70/3/1 146/3/1 128/3/1
f 63/2/2 65/2/5 141/2/5 139/2/2
f 63/2/2 64/2/3 19/2/4
f 53/1/1 52/1/1 129/1/1 130/1/1
f 75/11/81 32/11/82 112/11/83 150/11/84
f 71/6/43 64/2/44 140/2/44 110/6/72
f 52/3/1 69/3/1 145/3/1 129/3/1
f 66/3/1 25/3/29 1/3/1 50/3/1
f 26/3/30 3/3/1 5/3/1
f 6/3/1 27/3/31 5/3/1
f 28/3/32 5/3/1 27/3/31
f 28/3/32 27/3/31 29/3/15
f 31/11/85 74/11/86 149/11/86 111/11/87
f 20/2/39 27/3/38 25/3/88
f 21/2/18 26/3/41 28/3/89
f 21/2/20 30/3/21 23/2/22
f 30/3/21 21/2/20 28/3/90
f 65/2/91 72/4/92 147/4/93 141/2/91
f 54/1/1 53/1/1 130/1/1 131/1/1
f 24/2/25 27/3/42 22/2/78
f 67/3/10 66/3/1 142/3/1 143/3/10
f 45/11/85 78/11/94 119/11/86 116/11/95
f 70/3/1 54/3/1 131/3/1 146/3/1
f 72/4/92 25/3/96 67/3/28
f 43/9/69 76/10/68 78/12/94 44/8/97
f 34/8/46 73/7/45 74/9/98 33/9/99
f 72/4/92 67/3/28 143/3/28 147/4/93
f 19/2/44 71/6/43 68/3/74 26/3/100
f 55/2/2 57/2/5 134/2/5 132/2/2
f 25/3/96 72/4/92 65/2/91 20/2/101
f 68/3/74 71/6/43 110/6/72 144/3/74
f 56/2/3 55/2/2 132/2/2 133/2/3
f 7/2/44 61/6/75 60/3/74 14/3/102
f 69/3/1 68/3/12 144/3/12 145/3/1
f 61/6/75 56/2/44 133/2/44 97/6/76
f 13/3/28 62/4/27 57/2/91 8/2/101
f 73/7/45 75/8/47 150/8/81 148/7/73
f 57/2/91 62/4/27 138/4/73 134/2/91
f 74/9/98 73/7/45 148/7/73 149/9/84
f 3/1/1 53/1/1 54/1/1 4/1/1
f 26/3/30 69/3/1 52/3/1 3/3/1
f 58/3/1 60/3/12 137/3/12 135/3/1
f 2/3/1 70/3/1 51/3/1
f 78/12/94 76/10/68 117/10/72 119/12/86
f 59/3/10 58/3/1 135/3/1 136/3/10
f 80/1/1 81/1/1 79/1/1
f 81/1/1 80/1/1 82/1/1
f 82/1/1 80/1/1 83/1/1
f 84/1/1 82/1/1 83/1/1
f 130/1/1 84/1/1 131/1/1
f 87/2/103 86/2/104 88/2/105
f 92/3/106 93/3/107 91/3/108
f 93/3/107 92/3/106 94/3/109
f 94/3/109 92/3/106 95/3/10
f 94/3/109 95/3/10 96/3/110
f 95/3/111 88/2/112 90/2/113
f 88/2/114 91/3/115 87/2/116
f 87/2/117 93/3/118 85/2/119
f 94/3/120 85/2/121 93/3/122
f 94/3/123 89/2/124 86/2/125
f 89/2/124 94/3/123 96/3/126
f 99/2/104 100/2/103 98/2/127
f 100/2/103 99/2/104 101/2/105
f 101/2/105 99/2/104 102/2/3
f 101/2/105 102/2/3 103/2/128
f 101/2/112 104/3/129 105/3/130
f 105/3/106 107/3/107 106/3/108
f 107/3/107 105/3/106 108/3/131
f 79/3/1 104/3/132 80/3/1
f 81/3/1 108/3/131 79/3/1
f 108/3/131 81/3/1 109/3/110
f 145/3/1 82/3/1 129/3/1
f 107/3/118 100/2/117 106/3/133
f 108/3/134 102/2/124 99/2/125
f 110/6/72 109/3/74 144/3/74
f 147/4/93 103/2/91 141/2/91
f 112/8/135 113/9/136 111/9/137
f 113/9/136 112/8/135 114/8/138
f 148/7/73 111/9/139 149/9/84
f 117/10/72 116/8/95 119/12/86
f 121/8/140 115/9/141 120/9/142
f 115/9/141 121/8/140 116/8/143
f 121/8/144 123/9/145 122/8/146
f 123/9/145 121/8/144 120/9/147
f 122/8/148 125/9/149 124/8/150
f 125/9/149 122/8/148 123/9/151
f 124/8/152 113/9/153 114/8/154
f 113/9/153 124/8/152 125/9/155
f 86/2/104 87/2/103 85/2/127
f 88/2/105 86/2/104 89/2/3
f 88/2/105 89/2/3 90/2/128
f 97/6/76 96/3/74 137/3/74
f 138/4/73 90/2/91 134/2/91
f 88/2/112 95/3/111 92/3/130
f 91/3/115 88/2/114 92/3/156
f 93/3/118 87/2/117 91/3/133
f 85/2/121 94/3/120 86/2/157
f 104/3/129 101/2/112 103/2/113
f 108/3/131 105/3/106 104/3/132
f 108/3/131 104/3/132 79/3/1
f 109/3/110 81/3/1 82/3/1
f 108/3/158 98/2/121 107/3/122
f 98/2/121 108/3/158 99/2/157
f 106/3/115 101/2/114 105/3/156
f 101/2/114 106/3/115 100/2/116
f 100/2/117 107/3/118 98/2/119
f 146/3/1 84/3/1 83/3/1 128/3/1
f 102/2/124 108/3/134 109/3/126
f 116/8/95 117/10/72 118/9/71 115/9/159
f 111/9/139 148/7/73 150/8/81 112/8/160
f 109/3/110 82/3/1 145/3/1 144/3/12
f 103/2/91 147/4/93 143/3/28 104/3/161
f 80/3/1 104/3/132 143/3/10 142/3/1
f 109/3/74 110/6/72 140/2/44 102/2/162
f 103/2/128 139/2/2 141/2/5
f 103/2/128 102/2/3 140/2/3 139/2/2
f 90/2/91 138/4/73 136/3/28 95/3/163
f 96/3/110 95/3/10 136/3/10 135/3/1
f 96/3/110 135/3/1 137/3/12
f 96/3/74 97/6/76 133/2/44 89/2/162
f 90/2/128 89/2/3 133/2/3 132/2/2
f 90/2/128 132/2/2 134/2/5
f 84/3/1 146/3/1 131/3/1
f 82/1/1 84/1/1 130/1/1 129/1/1
f 80/3/1 142/3/1 127/3/1
f 83/1/1 80/1/1 127/1/1 126/1/1
f 83/1/1 126/1/1 128/1/1
l 121 46
l 47 122
